PathFileType  4	(X/Y/Z) C:\Users\hpl\Documents\MyRepositories\mocap-processing\Data\treadmill\running\
DataRate	CameraRate	NumFrames	NumMarkers	Units	OrigDataRate	OrigDataStartFrame	OrigNumFrames
  200.0		  200.0		    7		     46		 mm	  200.0	      687	    785
Frame#	Time	r_knee			r_shank_antsup			r_ankle			r_calc			r_5meta			r_toe			L_knee			L_shank_antsup			L_ankle			L_calc			L_5meta			L_toe			r_sh2			r_sh3			r_sh4			L_sh2			L_sh3			r_thigh1			r_thigh2			r_thigh3			r_thigh4			r_thigh5			L_thigh1			L_thigh2			L_thigh3			L_thigh4			r.ASIS			r.PSIS			L.ASIS			L.PSIS			C7			R_Shoulder			L_Shoulder			Sternum			R_humerus			R_elbow_med			R_elbow_lat			R_forearm			R_wrist_radius			R_wrist_ulna			L_humerus			L_elbow_med			L_elbow_lat			L_forearm			L_wrist_radius			L_wrist_ulna			
		X1	Y1	Z1	X2	Y2	Z2	X3	Y3	Z3	X4	Y4	Z4	X5	Y5	Z5	X6	Y6	Z6	X7	Y7	Z7	X8	Y8	Z8	X9	Y9	Z9	X10	Y10	Z10	X11	Y11	Z11	X12	Y12	Z12	X13	Y13	Z13	X14	Y14	Z14	X15	Y15	Z15	X16	Y16	Z16	X17	Y17	Z17	X18	Y18	Z18	X19	Y19	Z19	X20	Y20	Z20	X21	Y21	Z21	X22	Y22	Z22	X23	Y23	Z23	X24	Y24	Z24	X25	Y25	Z25	X26	Y26	Z26	X27	Y27	Z27	X28	Y28	Z28	X29	Y29	Z29	X30	Y30	Z30	X31	Y31	Z31	X32	Y32	Z32	X33	Y33	Z33	X34	Y34	Z34	X35	Y35	Z35	X36	Y36	Z36	X37	Y37	Z37	X38	Y38	Z38	X39	Y39	Z39	X40	Y40	Z40	X41	Y41	Z41	X42	Y42	Z42	X43	Y43	Z43	X44	Y44	Z44	X45	Y45	Z45	X46	Y46	Z46	

687	3.43000	692.776	151.971	569.419	595.502	143.006	486.776	280.157	175.018	395.614	257.885	245.148	463.486	191.935	155.612	278.275	228.312	204.277	232.460	1034.014	446.515	557.742	1092.817	452.308	456.802	1168.303	398.997	146.260	1135.609	330.023	117.830	1327.944	443.249	113.579	1365.622	394.077	161.814	483.383	152.944	446.018	567.599	123.020	553.190	458.467	146.364	523.704	1005.795	441.901	435.142	1048.529	421.332	324.225	875.516	138.290	729.529	817.853	157.821	630.155	767.517	137.901	620.077	776.679	98.264	771.570	724.022	130.317	670.606	1038.778	462.684	790.451	1074.269	437.670	657.471	925.780	485.901	760.126	966.381	445.358	630.324	959.845	160.072	1019.282	753.910	213.673	1097.718	936.061	420.296	1044.114	743.466	321.339	1096.736	823.724	272.566	1574.979	896.313	99.715	1555.497	825.487	451.161	1564.006	973.492	310.982	1490.768	883.126	-11.959	1350.202	754.431	4.917	1230.855	786.425	-75.097	1267.454	938.682	12.999	1270.882	1027.449	81.281	1265.855	1035.687	52.783	1223.904	669.132	549.277	1408.616	543.203	472.610	1332.441	562.177	556.274	1380.185	690.659	566.806	1281.361	798.188	521.946	1247.873	760.282	556.031	1195.008
688	3.43500	699.545	152.479	565.286	600.428	143.008	486.452	281.289	175.169	407.972	261.970	245.224	476.907	187.845	155.315	295.432	222.666	207.405	246.873	1032.052	446.079	555.776	1090.031	452.136	455.131	1168.261	398.213	144.989	1135.795	328.916	117.245	1328.247	441.718	111.526	1365.606	393.574	160.915	486.630	152.961	449.893	574.659	124.446	554.013	464.690	148.199	528.662	1003.426	439.910	432.839	1048.493	419.799	321.812	879.662	138.000	727.597	823.828	157.292	627.205	773.432	138.101	616.870	780.044	98.762	768.177	729.320	130.289	666.305	1034.342	462.410	785.242	1067.856	438.281	652.104	921.985	487.869	756.621	962.267	443.394	628.024	960.182	160.708	1018.652	753.617	213.609	1096.215	934.467	420.327	1042.910	742.248	321.244	1095.068	824.418	273.852	1573.661	896.634	100.541	1554.461	827.292	452.436	1562.006	974.096	311.429	1488.946	881.902	-12.405	1350.222	751.808	5.637	1231.438	783.908	-74.626	1267.926	936.641	12.634	1269.226	1026.016	80.789	1263.098	1033.432	51.743	1221.105	671.011	550.731	1406.067	545.368	474.212	1328.857	564.307	557.620	1377.084	693.112	568.271	1278.496	800.503	523.389	1244.836	762.613	557.693	1192.110
689	3.44000	706.984	152.920	560.877	606.098	143.290	485.924	283.969	174.956	419.804	267.877	245.272	489.592	185.796	156.229	311.515	219.063	207.647	261.514	1030.471	445.871	554.927	1086.750	453.184	452.664	1166.238	397.358	143.097	1133.710	328.165	115.818	1326.827	439.788	108.678	1363.772	391.864	158.489	490.852	153.485	453.465	582.856	125.963	554.884	472.146	149.330	533.020	1000.878	437.676	430.903	1047.742	418.395	319.591	883.757	137.958	725.276	829.928	156.565	624.048	779.501	138.175	613.276	783.662	97.787	764.612	734.547	130.726	661.595	1029.800	462.429	781.001	1063.123	439.064	647.956	917.882	490.649	753.602	959.096	442.219	626.873	960.376	161.387	1017.763	753.300	213.756	1094.377	933.225	420.493	1041.449	740.285	321.657	1093.430	825.080	275.131	1572.331	896.830	101.382	1553.174	828.687	453.652	1559.876	974.738	311.781	1486.798	880.575	-12.747	1349.991	748.923	6.264	1231.891	781.252	-74.205	1268.237	934.371	12.242	1266.945	1024.356	80.006	1259.523	1030.868	50.515	1217.458	673.198	552.315	1402.997	547.877	475.960	1325.036	566.671	559.246	1373.365	695.684	569.857	1275.052	803.357	525.032	1241.411	765.429	559.411	1188.909
690	3.44500	714.993	153.439	555.976	612.685	143.591	485.017	287.970	174.922	431.257	275.178	245.214	501.709	185.214	156.435	326.934	216.920	208.525	276.017	1029.210	445.603	554.444	1083.378	452.941	449.891	1162.719	396.508	140.440	1129.635	327.654	113.584	1323.556	437.465	104.845	1360.487	389.489	154.686	496.240	153.775	456.798	591.778	127.416	555.087	480.223	150.123	536.910	996.571	437.077	429.074	1046.268	417.138	317.525	887.936	137.693	722.942	836.393	156.118	620.669	786.052	136.922	609.165	786.619	99.043	760.345	740.024	130.627	656.441	1025.341	462.701	777.904	1060.899	439.153	645.908	913.960	493.699	750.586	957.192	441.486	625.811	960.436	161.896	1016.608	752.562	212.486	1092.283	931.686	420.606	1039.642	738.992	321.364	1090.930	825.793	276.499	1570.547	896.969	102.302	1551.623	830.062	455.343	1557.112	975.269	312.197	1484.338	878.818	-12.972	1349.436	746.373	7.319	1231.877	778.065	-73.407	1268.273	931.939	11.786	1264.190	1022.529	79.118	1255.139	1027.924	49.040	1213.157	675.479	553.918	1399.258	550.322	477.954	1320.641	569.172	561.274	1369.129	698.533	571.720	1270.980	806.310	526.573	1237.501	768.417	561.214	1184.961
691	3.45000	723.390	154.075	550.689	619.029	145.922	484.161	293.249	174.927	442.072	283.944	244.962	513.121	186.032	157.124	342.365	216.149	208.114	291.143	1028.240	445.268	553.717	1080.026	452.395	446.964	1157.723	395.466	137.353	1123.850	326.860	110.844	1318.753	434.810	100.049	1355.485	387.070	149.154	501.826	153.214	459.254	601.497	128.766	554.864	489.002	150.822	540.385	994.075	434.760	426.573	1044.066	416.043	315.579	892.173	137.383	720.216	843.200	156.194	617.726	792.893	136.318	604.753	790.089	98.846	755.754	746.007	130.279	650.724	1020.762	462.609	776.747	1058.657	437.898	646.013	910.478	497.166	747.813	955.515	441.875	625.604	960.267	162.456	1015.190	751.918	212.725	1089.672	928.748	420.472	1037.038	737.728	321.133	1087.983	826.503	277.835	1568.761	897.143	103.181	1549.871	831.634	457.062	1554.135	975.872	312.516	1481.583	876.601	-13.034	1348.712	743.110	8.370	1231.874	774.693	-72.264	1268.256	929.297	11.240	1260.968	1020.102	77.413	1249.464	1024.943	47.368	1208.081	678.036	555.685	1395.024	553.099	480.041	1315.729	571.987	563.416	1364.256	701.650	573.572	1266.464	809.497	528.455	1233.085	771.734	563.114	1180.611
692	3.45500	732.421	152.634	545.053	626.629	146.084	482.707	299.765	174.643	452.185	293.958	244.232	524.043	188.234	157.818	357.248	216.022	208.964	305.131	1027.099	445.080	552.592	1077.358	450.367	444.024	1151.131	394.157	133.511	1116.153	326.096	107.561	1312.153	431.766	93.982	1349.118	383.132	142.940	508.584	153.365	461.838	611.626	129.753	553.835	498.679	151.137	543.317	991.265	434.114	424.201	1041.147	415.108	313.742	896.592	137.358	717.485	850.359	155.752	614.167	800.351	135.656	600.005	793.854	98.386	750.913	752.339	129.760	644.715	1015.947	462.111	778.069	1057.185	437.402	648.475	908.267	499.016	746.031	955.552	442.284	626.070	959.960	162.857	1013.668	751.150	212.496	1087.008	927.404	420.638	1034.971	736.137	320.589	1085.454	827.243	278.901	1566.735	897.201	104.127	1547.758	833.042	458.786	1550.790	976.456	312.765	1478.686	874.089	-12.960	1347.606	739.833	9.694	1231.598	770.915	-70.992	1267.881	926.727	10.439	1257.483	1017.633	75.747	1243.857	1021.484	45.413	1202.556	680.741	557.435	1390.213	555.998	482.380	1310.270	574.956	565.782	1358.933	705.148	575.594	1261.294	812.858	530.162	1228.214	775.123	565.054	1175.811
693	3.46000	741.676	152.272	539.128	634.725	146.663	480.664	307.209	174.520	461.599	304.800	244.174	533.862	191.722	158.545	371.651	216.826	210.087	318.481	1025.285	444.928	550.705	1073.927	450.928	440.435	1142.842	393.038	129.080	1106.886	325.283	103.883	1304.002	428.382	86.866	1341.121	379.375	135.439	516.015	153.826	464.064	622.241	130.599	552.592	508.930	151.419	545.771	987.668	434.711	422.537	1037.523	414.325	312.003	901.703	135.407	715.615	857.788	155.737	610.386	808.137	134.974	594.901	798.086	97.204	745.801	759.100	129.143	638.276	1011.391	461.721	780.821	1057.679	437.720	652.549	906.613	500.664	744.618	955.041	443.158	625.187	959.426	163.147	1011.767	750.589	212.489	1083.726	926.987	420.776	1032.792	734.769	320.524	1081.215	827.841	280.207	1564.419	896.757	104.647	1545.585	834.362	460.805	1547.464	976.987	312.919	1475.369	871.578	-12.959	1346.263	736.317	11.261	1231.180	767.121	-69.709	1267.239	923.716	9.697	1253.290	1015.222	74.009	1237.554	1017.894	43.321	1196.350	683.652	559.310	1384.794	558.966	484.824	1304.526	578.250	568.310	1353.089	708.607	577.740	1255.662	816.322	531.957	1222.927	778.753	566.933	1170.554
